<svg width="846.1062499999999px" height="167.6px" xmlns="http://www.w3.org/2000/svg" viewBox="-173.05312499999997 -8.799999999999997 846.1062499999999 167.6" style="background: rgba(0, 0, 0, 0);" preserveAspectRatio="xMidYMid"><defs><filter id="editing-vr"><feFlood flood-color="#f00" flood-opacity="0.7" result="c1"></feFlood><feFlood flood-color="#ffc900" flood-opacity="0.7" result="c3"></feFlood><feComposite operator="in" in="c1" in2="SourceAlpha" result="text-c1"></feComposite><feComposite operator="in" in="c3" in2="SourceAlpha" result="text-c3"></feComposite><feOffset in="text-c1" dx="5" dy="-1" result="text1"></feOffset><feOffset in="text-c3" dx="-5" dy="1" result="text3"></feOffset><feBlend in="SourceGraphic" in2="text1" mode="multiply" result="text4"></feBlend><feBlend in="text4" in2="text3" mode="multiply"></feBlend></filter></defs><g filter="url(#editing-vr)"><g transform="translate(-55.84498929977417, 116.6500015258789)"><path d="M75.54-54.91L75.54 0L64.66 0L64.66-35.44L45.53-1.78L45.53-1.78Q44.82-0.50 43.56 0.17L43.56 0.17L43.56 0.17Q42.29 0.83 40.84 0.83L40.84 0.83L40.84 0.83Q39.43 0.83 38.20 0.17L38.20 0.17L38.20 0.17Q36.98-0.50 36.27-1.78L36.27-1.78L17.06-35.44L17.06 0L6.27 0L6.27-54.91L6.27-54.91Q6.27-56.78 7.37-58.23L7.37-58.23L7.37-58.23Q8.47-59.68 10.25-60.18L10.25-60.18L10.25-60.18Q11.12-60.39 11.99-60.33L11.99-60.33L11.99-60.33Q12.87-60.26 13.68-59.95L13.68-59.95L13.68-59.95Q14.48-59.64 15.15-59.08L15.15-59.08L15.15-59.08Q15.81-58.52 16.27-57.73L16.27-57.73L40.84-15.02L65.41-57.73L65.41-57.73Q66.36-59.31 68.05-59.97L68.05-59.97L68.05-59.97Q69.73-60.64 71.55-60.18L71.55-60.18L71.55-60.18Q73.30-59.68 74.42-58.23L74.42-58.23L74.42-58.23Q75.54-56.78 75.54-54.91L75.54-54.91ZM134.85-30.01L134.85-30.01L134.85-30.01Q134.85-27.77 134.06-25.17L134.06-25.17L134.06-25.17Q133.27-22.58 131.51-20.36L131.51-20.36L131.51-20.36Q129.74-18.14 126.90-16.64L126.90-16.64L126.90-16.64Q124.06-15.15 119.99-15.15L119.99-15.15L100.52-15.15L100.52-25.40L119.99-25.40L119.99-25.40Q122.19-25.40 123.39-26.75L123.39-26.75L123.39-26.75Q124.59-28.10 124.59-30.09L124.59-30.09L124.59-30.09Q124.59-32.21 123.25-33.41L123.25-33.41L123.25-33.41Q121.90-34.61 119.99-34.61L119.99-34.61L100.52-34.61L100.52-34.61Q98.32-34.61 97.12-33.27L97.12-33.27L97.12-33.27Q95.92-31.92 95.92-29.92L95.92-29.92L95.92-14.86L95.92-14.86Q95.92-12.70 97.26-11.50L97.26-11.50L97.26-11.50Q98.61-10.29 100.61-10.29L100.61-10.29L119.99-10.29L119.99 0L100.52 0L100.52 0Q98.28 0 95.69-0.79L95.69-0.79L95.69-0.79Q93.09-1.58 90.87-3.34L90.87-3.34L90.87-3.34Q88.65-5.10 87.16-7.95L87.16-7.95L87.16-7.95Q85.66-10.79 85.66-14.86L85.66-14.86L85.66-30.01L85.66-30.01Q85.66-32.25 86.45-34.84L86.45-34.84L86.45-34.84Q87.24-37.44 89.01-39.66L89.01-39.66L89.01-39.66Q90.77-41.88 93.61-43.37L93.61-43.37L93.61-43.37Q96.46-44.87 100.52-44.87L100.52-44.87L119.99-44.87L119.99-44.87Q122.23-44.87 124.82-44.08L124.82-44.08L124.82-44.08Q127.42-43.29 129.64-41.52L129.64-41.52L129.64-41.52Q131.86-39.76 133.35-36.92L133.35-36.92L133.35-36.92Q134.85-34.07 134.85-30.01ZM182.91-44.87L182.91-34.07L164.06-34.07L164.06 0L153.15 0L153.15-34.07L139.12-34.07L139.12-44.87L153.15-44.87L153.15-59.52L164.06-59.52L164.06-44.87L182.91-44.87ZM233.75-30.01L233.75-14.86L233.75-14.86Q233.75-12.62 232.96-10.02L232.96-10.02L232.96-10.02Q232.17-7.43 230.41-5.21L230.41-5.21L230.41-5.21Q228.65-2.99 225.80-1.49L225.80-1.49L225.80-1.49Q222.96 0 218.89 0L218.89 0L199.43 0L199.43 0Q197.19 0 194.59-0.79L194.59-0.79L194.59-0.79Q192.00-1.58 189.78-3.34L189.78-3.34L189.78-3.34Q187.56-5.10 186.06-7.95L186.06-7.95L186.06-7.95Q184.57-10.79 184.57-14.86L184.57-14.86L184.57-14.86Q184.57-17.10 185.36-19.71L185.36-19.71L185.36-19.71Q186.15-22.33 187.91-24.55L187.91-24.55L187.91-24.55Q189.67-26.77 192.52-28.26L192.52-28.26L192.52-28.26Q195.36-29.76 199.43-29.76L199.43-29.76L218.89-29.76L218.89-19.47L199.43-19.47L199.43-19.47Q197.23-19.47 196.02-18.12L196.02-18.12L196.02-18.12Q194.82-16.77 194.82-14.78L194.82-14.78L194.82-14.78Q194.82-12.66 196.21-11.48L196.21-11.48L196.21-11.48Q197.60-10.29 199.51-10.29L199.51-10.29L218.89-10.29L218.89-10.29Q221.09-10.29 222.29-11.62L222.29-11.62L222.29-11.62Q223.50-12.95 223.50-14.94L223.50-14.94L223.50-30.01L223.50-30.01Q223.50-32.12 222.19-33.37L222.19-33.37L222.19-33.37Q220.88-34.61 218.89-34.61L218.89-34.61L195.19-34.61L195.19-44.87L218.89-44.87L218.89-44.87Q221.13-44.87 223.73-44.08L223.73-44.08L223.73-44.08Q226.32-43.29 228.54-41.52L228.54-41.52L228.54-41.52Q230.76-39.76 232.26-36.92L232.26-36.92L232.26-36.92Q233.75-34.07 233.75-30.01L233.75-30.01ZM281.65-34.61L281.65-24.90L242.71-24.90L242.71-34.61L281.65-34.61ZM303.60-59.52L303.60 0L292.81 0L292.81-59.52L303.60-59.52ZM364.74-24.90L364.74 0L353.95 0L353.95-24.90L353.95-24.90Q353.95-27.02 353.22-28.70L353.22-28.70L353.22-28.70Q352.49-30.38 351.25-31.58L351.25-31.58L351.25-31.58Q350.00-32.79 348.32-33.43L348.32-33.43L348.32-33.43Q346.64-34.07 344.69-34.07L344.69-34.07L325.81-34.07L325.81 0L315.01 0L315.01-39.51L315.01-39.51Q315.01-40.63 315.43-41.61L315.43-41.61L315.43-41.61Q315.84-42.58 316.59-43.31L316.59-43.31L316.59-43.31Q317.34-44.04 318.33-44.45L318.33-44.45L318.33-44.45Q319.33-44.87 320.45-44.87L320.45-44.87L344.77-44.87L344.77-44.87Q346.81-44.87 349.07-44.41L349.07-44.41L349.07-44.41Q351.33-43.95 353.55-42.94L353.55-42.94L353.55-42.94Q355.77-41.92 357.78-40.36L357.78-40.36L357.78-40.36Q359.80-38.81 361.35-36.59L361.35-36.59L361.35-36.59Q362.91-34.37 363.82-31.46L363.82-31.46L363.82-31.46Q364.74-28.55 364.74-24.90L364.74-24.90ZM417.57-15.15L417.57-15.15L417.57-15.15Q417.57-12.37 416.87-10.15L416.87-10.15L416.87-10.15Q416.16-7.93 415.00-6.25L415.00-6.25L415.00-6.25Q413.84-4.57 412.30-3.38L412.30-3.38L412.30-3.38Q410.76-2.20 409.08-1.45L409.08-1.45L409.08-1.45Q407.40-0.71 405.68-0.35L405.68-0.35L405.68-0.35Q403.96 0 402.42 0L402.42 0L373.20 0L373.20-10.79L402.34-10.79L402.34-10.79Q404.54-10.79 405.66-11.91L405.66-11.91L405.66-11.91Q406.78-13.03 406.78-15.15L406.78-15.15L406.78-15.15Q406.57-19.47 402.42-19.47L402.42-19.47L385.70-19.47L385.70-19.47Q382.13-19.47 379.64-20.71L379.64-20.71L379.64-20.71Q377.15-21.96 375.59-23.82L375.59-23.82L375.59-23.82Q374.03-25.69 373.35-27.85L373.35-27.85L373.35-27.85Q372.66-30.01 372.66-31.88L372.66-31.88L372.66-31.88Q372.66-35.49 373.95-37.96L373.95-37.96L373.95-37.96Q375.24-40.42 377.19-41.96L377.19-41.96L377.19-41.96Q379.14-43.50 381.42-44.18L381.42-44.18L381.42-44.18Q383.70-44.87 385.70-44.87L385.70-44.87L412.22-44.87L412.22-34.07L385.78-34.07L385.78-34.07Q384.95-34.07 384.47-33.89L384.47-33.89L384.47-33.89Q383.99-33.70 383.77-33.39L383.77-33.39L383.77-33.39Q383.54-33.08 383.50-32.73L383.50-32.73L383.50-32.73Q383.45-32.37 383.45-32.04L383.45-32.04L383.45-32.04Q383.50-31.38 383.70-31.00L383.70-31.00L383.70-31.00Q383.91-30.63 384.22-30.46L384.22-30.46L384.22-30.46Q384.53-30.30 384.93-30.28L384.93-30.28L384.93-30.28Q385.32-30.26 385.70-30.26L385.70-30.26L402.42-30.26L402.42-30.26Q406.57-30.26 409.48-28.76L409.48-28.76L409.48-28.76Q412.38-27.27 414.17-25.01L414.17-25.01L414.17-25.01Q415.95-22.74 416.76-20.09L416.76-20.09L416.76-20.09Q417.57-17.43 417.57-15.15ZM436.08-63.83L436.08-54.08L425.29-54.08L425.29-63.83L436.08-63.83ZM436.08-44.87L436.08 0L425.29 0L425.29-44.87L436.08-44.87ZM495.22-29.76L495.22 4.32L495.22 4.32Q495.22 7.10 494.52 9.32L494.52 9.32L494.52 9.32Q493.81 11.54 492.65 13.22L492.65 13.22L492.65 13.22Q491.49 14.90 489.95 16.08L489.95 16.08L489.95 16.08Q488.42 17.27 486.74 18.01L486.74 18.01L486.74 18.01Q485.06 18.76 483.33 19.11L483.33 19.11L483.33 19.11Q481.61 19.47 480.08 19.47L480.08 19.47L460.61 19.47L460.61 8.67L480.08 8.67L480.08 8.67Q482.28 8.67 483.35 7.55L483.35 7.55L483.35 7.55Q484.43 6.43 484.43 4.32L484.43 4.32L484.43-29.76L484.43-29.76Q484.43-31.88 483.35-32.97L483.35-32.97L483.35-32.97Q482.28-34.07 480.08-34.07L480.08-34.07L460.61-34.07L460.61-34.07Q458.62-34.07 457.46-32.85L457.46-32.85L457.46-32.85Q456.29-31.63 456.29-29.76L456.29-29.76L456.29-15.15L456.29-15.15Q456.29-13.03 457.41-11.91L457.41-11.91L457.41-11.91Q458.54-10.79 460.69-10.79L460.69-10.79L480.08-10.79L480.08 0L460.61 0L460.61 0Q459.07 0 457.37-0.35L457.37-0.35L457.37-0.35Q455.67-0.71 453.99-1.45L453.99-1.45L453.99-1.45Q452.31-2.20 450.77-3.38L450.77-3.38L450.77-3.38Q449.24-4.57 448.08-6.25L448.08-6.25L448.08-6.25Q446.91-7.93 446.21-10.15L446.21-10.15L446.21-10.15Q445.50-12.37 445.50-15.15L445.50-15.15L445.50-29.76L445.50-29.76Q445.50-31.29 445.86-33.00L445.86-33.00L445.86-33.00Q446.21-34.70 446.96-36.38L446.96-36.38L446.96-36.38Q447.70-38.06 448.89-39.59L448.89-39.59L448.89-39.59Q450.07-41.13 451.75-42.29L451.75-42.29L451.75-42.29Q453.43-43.45 455.63-44.16L455.63-44.16L455.63-44.16Q457.83-44.87 460.61-44.87L460.61-44.87L480.08-44.87L480.08-44.87Q481.61-44.87 483.33-44.51L483.33-44.51L483.33-44.51Q485.06-44.16 486.74-43.41L486.74-43.41L486.74-43.41Q488.42-42.67 489.95-41.48L489.95-41.48L489.95-41.48Q491.49-40.30 492.65-38.62L492.65-38.62L492.65-38.62Q493.81-36.94 494.52-34.74L494.52-34.74L494.52-34.74Q495.22-32.54 495.22-29.76L495.22-29.76ZM554.99-29.76L554.99 0L544.20 0L544.20-29.76L544.20-29.76Q544.20-31.88 543.12-32.97L543.12-32.97L543.12-32.97Q542.04-34.07 539.88-34.07L539.88-34.07L520.42-34.07L520.42-44.87L539.88-44.87L539.88-44.87Q541.42-44.87 543.12-44.51L543.12-44.51L543.12-44.51Q544.82-44.16 546.50-43.41L546.50-43.41L546.50-43.41Q548.18-42.67 549.72-41.48L549.72-41.48L549.72-41.48Q551.25-40.30 552.42-38.62L552.42-38.62L552.42-38.62Q553.58-36.94 554.28-34.74L554.28-34.74L554.28-34.74Q554.99-32.54 554.99-29.76L554.99-29.76ZM516.06-63.83L516.06 0L505.27 0L505.27-63.83L516.06-63.83ZM605.42-44.87L605.42-34.07L586.57-34.07L586.57 0L575.66 0L575.66-34.07L561.63-34.07L561.63-44.87L575.66-44.87L575.66-59.52L586.57-59.52L586.57-44.87L605.42-44.87Z" fill="#ffffff"></path></g></g><style>text {
  font-size: 64px;
  font-family: Arial Black;
  dominant-baseline: central;
  text-anchor: middle;
}</style></svg>